<?xml version="1.0" encoding="UTF-8"?>
<svg xmlns="http://www.w3.org/2000/svg" xmlns:xlink="http://www.w3.org/1999/xlink" width="297pt" height="72pt" viewBox="0 0 297 72" version="1.1">
<g id="surface6496">
<rect x="0" y="0" width="297" height="72" style="fill:rgb(100%,100%,100%);fill-opacity:1;stroke:none;"/>
<rect x="0" y="0" width="297" height="72" style="fill:rgb(81.568627%,81.568627%,81.568627%);fill-opacity:1;stroke:none;"/>
<path style="fill:none;stroke-width:0.5;stroke-linecap:round;stroke-linejoin:round;stroke:rgb(51.764706%,50.980392%,51.764706%);stroke-opacity:1;stroke-miterlimit:10;" d="M 0 0 L 297 0 L 297 72 L 0 72 Z M 0 0 "/>
<path style="fill:none;stroke-width:0.5;stroke-linecap:round;stroke-linejoin:round;stroke:rgb(0%,0%,0%);stroke-opacity:1;stroke-miterlimit:10;" d="M 0 72 L 297 72 M 18.289062 72 L 18.289062 67.75 M 36.871094 72 L 36.871094 67.75 M 55.453125 72 L 55.453125 67.75 M 74.03125 72 L 74.03125 67.75 M 92.613281 72 L 92.613281 67.75 M 111.195312 72 L 111.195312 67.75 M 129.773438 72 L 129.773438 67.75 M 148.355469 72 L 148.355469 67.75 M 166.933594 72 L 166.933594 67.75 M 185.515625 72 L 185.515625 67.75 M 204.097656 72 L 204.097656 67.75 M 222.675781 72 L 222.675781 67.75 M 241.257812 72 L 241.257812 67.75 M 259.839844 72 L 259.839844 67.75 M 278.417969 72 L 278.417969 67.75 M 297 72 L 297 67.75 "/>
<path style="fill:none;stroke-width:0.5;stroke-linecap:round;stroke-linejoin:round;stroke:rgb(0%,0%,0%);stroke-opacity:1;stroke-miterlimit:10;" d="M 0 72 L 0 0 M 0 72 L 4.25 72 M 0 56.640625 L 4.25 56.640625 M 0 41.28125 L 4.25 41.28125 M 0 25.921875 L 4.25 25.921875 M 0 10.558594 L 4.25 10.558594 "/>
<path style="fill:none;stroke-width:0.5;stroke-linecap:round;stroke-linejoin:round;stroke:rgb(0%,0%,50.196078%);stroke-opacity:1;stroke-miterlimit:10;" d="M 0 72 L 0.289062 71.761719 L 0.582031 71.519531 L 0.871094 71.28125 L 1.160156 71.039062 L 1.453125 70.800781 L 1.742188 70.558594 L 2.03125 70.320312 L 2.324219 70.078125 L 2.902344 69.601562 L 3.195312 69.359375 L 3.484375 69.121094 L 3.773438 68.878906 L 4.066406 68.640625 L 4.355469 68.398438 L 4.933594 67.921875 L 5.226562 67.679688 L 5.515625 67.441406 L 5.804688 67.199219 L 6.097656 66.960938 L 6.386719 66.71875 L 6.675781 66.480469 L 6.96875 66.238281 L 7.546875 65.761719 L 7.839844 65.519531 L 8.128906 65.28125 L 8.417969 65.039062 L 8.710938 64.800781 L 9 64.558594 L 9.289062 64.320312 L 9.582031 64.078125 L 10.160156 63.601562 L 10.453125 63.359375 L 10.742188 63.121094 L 11.03125 62.878906 L 11.324219 62.640625 L 11.613281 62.398438 L 11.902344 62.160156 L 12.195312 61.921875 L 12.484375 61.679688 L 12.773438 61.441406 L 13.066406 61.199219 L 13.355469 60.960938 L 13.644531 60.71875 L 13.933594 60.480469 L 14.226562 60.238281 L 14.804688 59.761719 L 15.097656 59.519531 L 15.386719 59.28125 L 15.675781 59.039062 L 15.96875 58.800781 L 16.257812 58.558594 L 16.546875 58.320312 L 16.839844 58.078125 L 17.417969 57.601562 L 17.710938 57.359375 L 18 57.121094 L 18.289062 56.878906 L 18.582031 56.640625 L 18.871094 56.398438 L 19.160156 56.160156 L 19.453125 55.921875 L 19.742188 55.679688 L 20.03125 55.441406 L 20.324219 55.199219 L 20.613281 54.960938 L 20.902344 54.71875 L 21.195312 54.480469 L 21.484375 54.238281 L 21.773438 54 L 22.066406 53.761719 L 22.355469 53.519531 L 22.644531 53.28125 L 22.933594 53.039062 L 23.226562 52.800781 L 23.515625 52.558594 L 23.804688 52.320312 L 24.097656 52.078125 L 24.675781 51.601562 L 24.96875 51.359375 L 25.257812 51.121094 L 25.546875 50.878906 L 25.839844 50.640625 L 26.128906 50.398438 L 26.417969 50.160156 L 26.710938 49.921875 L 27 49.679688 L 27.289062 49.441406 L 27.582031 49.199219 L 27.871094 48.960938 L 28.160156 48.71875 L 28.453125 48.480469 L 28.742188 48.238281 L 29.03125 48 L 29.324219 47.761719 L 29.613281 47.519531 L 29.902344 47.28125 L 30.195312 47.039062 L 30.484375 46.800781 L 30.773438 46.558594 L 31.066406 46.320312 L 31.355469 46.078125 L 31.933594 45.601562 L 32.226562 45.359375 L 32.515625 45.121094 L 32.804688 44.878906 L 33.097656 44.640625 L 33.386719 44.398438 L 33.675781 44.160156 L 33.96875 43.921875 L 34.257812 43.679688 L 34.546875 43.441406 L 34.839844 43.199219 L 35.128906 42.960938 L 35.417969 42.71875 L 35.710938 42.480469 L 36 42.238281 L 36.289062 42 L 36.582031 41.761719 L 36.871094 41.519531 L 37.160156 41.28125 L 37.453125 41.039062 L 37.742188 40.800781 L 38.03125 40.558594 L 38.324219 40.320312 L 38.613281 40.078125 L 38.902344 39.839844 L 39.195312 39.601562 L 39.484375 39.359375 L 39.773438 39.121094 L 40.066406 38.878906 L 40.355469 38.640625 L 40.644531 38.398438 L 40.933594 38.160156 L 41.226562 37.921875 L 41.515625 37.679688 L 41.804688 37.441406 L 42.097656 37.199219 L 42.386719 36.960938 L 42.675781 36.71875 L 42.96875 36.480469 L 43.257812 36.238281 L 43.546875 36 L 43.839844 35.761719 L 44.128906 35.519531 L 44.417969 35.28125 L 44.710938 35.039062 L 45 34.800781 L 45.289062 34.558594 L 45.582031 34.320312 L 45.871094 34.078125 L 46.160156 33.839844 L 46.453125 33.601562 L 46.742188 33.359375 L 47.03125 33.121094 L 47.324219 32.878906 L 47.613281 32.640625 L 47.902344 32.398438 L 48.195312 32.160156 L 48.484375 31.921875 L 48.773438 31.679688 L 49.066406 31.441406 L 49.355469 31.199219 L 49.644531 30.960938 L 49.933594 30.71875 L 50.226562 30.480469 L 50.515625 30.238281 L 50.804688 30 L 51.097656 29.761719 L 51.386719 29.519531 L 51.675781 29.28125 L 51.96875 29.039062 L 52.257812 28.800781 L 52.546875 28.558594 L 52.839844 28.320312 L 53.128906 28.078125 L 53.417969 27.839844 L 53.710938 27.601562 L 54 27.359375 L 54.289062 27.121094 L 54.582031 26.878906 L 54.871094 26.640625 L 55.160156 26.398438 L 55.453125 26.160156 L 55.742188 25.921875 L 56.03125 25.679688 L 56.324219 25.441406 L 56.613281 25.199219 L 56.902344 24.960938 L 57.195312 24.71875 L 57.484375 24.480469 L 57.773438 24.238281 L 58.066406 24 L 58.355469 23.761719 L 58.644531 23.519531 L 58.933594 23.28125 L 59.226562 23.039062 L 59.515625 22.800781 L 59.804688 22.558594 L 60.097656 22.320312 L 60.386719 22.078125 L 60.675781 21.839844 L 60.96875 21.601562 L 61.257812 21.359375 L 61.546875 21.121094 L 61.839844 20.878906 L 62.128906 20.640625 L 62.417969 20.398438 L 62.710938 20.160156 L 63 19.921875 L 63.289062 19.679688 L 63.582031 19.441406 L 63.871094 19.199219 L 64.160156 18.960938 L 64.453125 18.71875 L 64.742188 18.480469 L 65.03125 18.238281 L 65.324219 18 L 65.613281 17.761719 L 65.902344 17.519531 L 66.195312 17.28125 L 66.484375 17.039062 L 66.773438 16.800781 L 67.066406 16.558594 L 67.355469 16.320312 L 67.644531 16.078125 L 67.933594 15.839844 L 68.226562 15.601562 L 68.515625 15.359375 L 68.804688 15.121094 L 69.097656 14.878906 L 69.386719 14.640625 L 69.675781 14.398438 L 69.96875 14.160156 L 70.257812 13.921875 L 70.546875 13.679688 L 70.839844 13.441406 L 71.128906 13.199219 L 71.417969 12.960938 L 71.710938 12.71875 L 72 12.480469 L 72.289062 12.238281 L 72.582031 12 L 72.871094 11.761719 L 73.160156 11.519531 L 73.453125 11.28125 L 73.742188 11.039062 L 74.03125 10.800781 L 74.324219 72 L 74.613281 71.761719 L 74.902344 71.519531 L 75.195312 71.28125 L 75.484375 71.039062 L 75.773438 70.800781 L 76.066406 70.558594 L 76.355469 70.320312 L 76.644531 70.078125 L 76.933594 69.839844 L 77.226562 69.601562 L 77.515625 69.359375 L 77.804688 69.121094 L 78.097656 68.878906 L 78.386719 68.640625 L 78.675781 68.398438 L 78.96875 68.160156 L 79.257812 67.921875 L 79.546875 67.679688 L 79.839844 67.441406 L 80.128906 67.199219 L 80.417969 66.960938 L 80.710938 66.71875 L 81 66.480469 L 81.289062 66.238281 L 81.582031 66 L 81.871094 65.761719 L 82.160156 65.519531 L 82.453125 65.28125 L 82.742188 65.039062 L 83.03125 64.800781 L 83.324219 64.558594 L 83.613281 64.320312 L 83.902344 64.078125 L 84.195312 63.839844 L 84.484375 63.601562 L 84.773438 63.359375 L 85.066406 63.121094 L 85.355469 62.878906 L 85.644531 62.640625 L 85.933594 62.398438 L 86.226562 62.160156 L 86.515625 61.921875 L 86.804688 61.679688 L 87.097656 61.441406 L 87.386719 61.199219 L 87.675781 60.960938 L 87.96875 60.71875 L 88.257812 60.480469 L 88.546875 60.238281 L 88.839844 60 L 89.128906 59.761719 L 89.417969 59.519531 L 89.710938 59.28125 L 90 59.039062 L 90.289062 58.800781 L 90.582031 58.558594 L 90.871094 58.320312 L 91.160156 58.078125 L 91.453125 57.839844 L 91.742188 57.601562 L 92.03125 57.359375 L 92.324219 57.121094 L 92.613281 56.878906 L 92.902344 56.640625 L 93.195312 56.398438 L 93.773438 55.921875 L 94.066406 55.679688 L 94.355469 55.441406 L 94.644531 55.199219 L 94.933594 54.960938 L 95.226562 54.71875 L 95.515625 54.480469 L 95.804688 54.238281 L 96.097656 54 L 96.386719 53.761719 L 96.675781 53.519531 L 96.96875 53.28125 L 97.257812 53.039062 L 97.546875 52.800781 L 97.839844 52.558594 L 98.128906 52.320312 L 98.417969 52.078125 L 98.710938 51.839844 L 99 51.601562 L 99.289062 51.359375 L 99.582031 51.121094 L 99.871094 50.878906 L 100.160156 50.640625 L 100.453125 50.398438 L 101.03125 49.921875 L 101.324219 49.679688 L 101.613281 49.441406 L 101.902344 49.199219 L 102.195312 48.960938 L 102.484375 48.71875 L 102.773438 48.480469 L 103.066406 48.238281 L 103.644531 47.761719 L 103.933594 47.519531 L 104.226562 47.28125 L 104.515625 47.039062 L 104.804688 46.800781 L 105.097656 46.558594 L 105.386719 46.320312 L 105.675781 46.078125 L 105.96875 45.839844 L 106.257812 45.601562 L 106.546875 45.359375 L 106.839844 45.121094 L 107.128906 44.878906 L 107.417969 44.640625 L 107.710938 44.398438 L 108.289062 43.921875 L 108.582031 43.679688 L 108.871094 43.441406 L 109.160156 43.199219 L 109.453125 42.960938 L 109.742188 42.71875 L 110.03125 42.480469 L 110.324219 42.238281 L 110.902344 41.761719 L 111.195312 41.519531 L 111.484375 41.28125 L 111.773438 41.039062 L 112.066406 40.800781 L 112.355469 40.558594 L 112.644531 40.320312 L 112.933594 40.078125 L 113.226562 39.839844 L 113.515625 39.601562 L 113.804688 39.359375 L 114.097656 39.121094 L 114.386719 38.878906 L 114.675781 38.640625 L 114.96875 38.398438 L 115.546875 37.921875 L 115.839844 37.679688 L 116.128906 37.441406 L 116.417969 37.199219 L 116.710938 36.960938 L 117 36.71875 L 117.289062 36.480469 L 117.582031 36.238281 L 118.160156 35.761719 L 118.453125 35.519531 L 118.742188 35.28125 L 119.03125 35.039062 L 119.324219 34.800781 L 119.613281 34.558594 L 119.902344 34.320312 L 120.195312 34.078125 L 120.773438 33.601562 L 121.066406 33.359375 L 121.355469 33.121094 L 121.644531 32.878906 L 121.933594 32.640625 L 122.226562 32.398438 L 122.804688 31.921875 L 123.097656 31.679688 L 123.386719 31.441406 L 123.675781 31.199219 L 123.96875 30.960938 L 124.257812 30.71875 L 124.546875 30.480469 L 124.839844 30.238281 L 125.417969 29.761719 L 125.710938 29.519531 L 126 29.28125 L 126.289062 29.039062 L 126.582031 28.800781 L 126.871094 28.558594 L 127.160156 28.320312 L 127.453125 28.078125 L 128.03125 27.601562 L 128.324219 27.359375 L 128.613281 27.121094 L 128.902344 26.878906 L 129.195312 26.640625 L 129.484375 26.398438 L 129.773438 26.160156 L 130.066406 25.921875 L 130.355469 25.679688 L 130.644531 25.441406 L 130.933594 25.199219 L 131.226562 24.960938 L 131.515625 24.71875 L 131.804688 24.480469 L 132.097656 24.238281 L 132.675781 23.761719 L 132.96875 23.519531 L 133.257812 23.28125 L 133.546875 23.039062 L 133.839844 22.800781 L 134.128906 22.558594 L 134.417969 22.320312 L 134.710938 22.078125 L 135.289062 21.601562 L 135.582031 21.359375 L 135.871094 21.121094 L 136.160156 20.878906 L 136.453125 20.640625 L 136.742188 20.398438 L 137.03125 20.160156 L 137.324219 19.921875 L 137.613281 19.679688 L 137.902344 19.441406 L 138.195312 19.199219 L 138.484375 18.960938 L 138.773438 18.71875 L 139.066406 18.480469 L 139.355469 18.238281 L 139.933594 17.761719 L 140.226562 17.519531 L 140.515625 17.28125 L 140.804688 17.039062 L 141.097656 16.800781 L 141.386719 16.558594 L 141.675781 16.320312 L 141.96875 16.078125 L 142.546875 15.601562 L 142.839844 15.359375 L 143.128906 15.121094 L 143.417969 14.878906 L 143.710938 14.640625 L 144 14.398438 L 144.289062 14.160156 L 144.582031 13.921875 L 144.871094 13.679688 L 145.160156 13.441406 L 145.453125 13.199219 L 145.742188 12.960938 L 146.03125 12.71875 L 146.324219 12.480469 L 146.613281 12.238281 L 146.902344 12 L 147.195312 11.761719 L 147.484375 11.519531 L 147.773438 11.28125 L 148.066406 11.039062 L 148.355469 10.800781 L 148.644531 72 L 148.933594 71.761719 L 149.226562 71.519531 L 149.515625 71.28125 L 149.804688 71.039062 L 150.097656 70.800781 L 150.386719 70.558594 L 150.675781 70.320312 L 150.96875 70.078125 L 151.546875 69.601562 L 151.839844 69.359375 L 152.128906 69.121094 L 152.417969 68.878906 L 152.710938 68.640625 L 153 68.398438 L 153.289062 68.160156 L 153.582031 67.921875 L 153.871094 67.679688 L 154.160156 67.441406 L 154.453125 67.199219 L 154.742188 66.960938 L 155.03125 66.71875 L 155.324219 66.480469 L 155.613281 66.238281 L 155.902344 66 L 156.195312 65.761719 L 156.484375 65.519531 L 156.773438 65.28125 L 157.066406 65.039062 L 157.355469 64.800781 L 157.644531 64.558594 L 157.933594 64.320312 L 158.226562 64.078125 L 158.804688 63.601562 L 159.097656 63.359375 L 159.386719 63.121094 L 159.675781 62.878906 L 159.96875 62.640625 L 160.257812 62.398438 L 160.546875 62.160156 L 160.839844 61.921875 L 161.128906 61.679688 L 161.417969 61.441406 L 161.710938 61.199219 L 162 60.960938 L 162.289062 60.71875 L 162.582031 60.480469 L 162.871094 60.238281 L 163.160156 60 L 163.453125 59.761719 L 163.742188 59.519531 L 164.03125 59.28125 L 164.324219 59.039062 L 164.613281 58.800781 L 164.902344 58.558594 L 165.195312 58.320312 L 165.484375 58.078125 L 165.773438 57.839844 L 166.066406 57.601562 L 166.355469 57.359375 L 166.644531 57.121094 L 166.933594 56.878906 L 167.226562 56.640625 L 167.515625 56.398438 L 167.804688 56.160156 L 168.097656 55.921875 L 168.386719 55.679688 L 168.675781 55.441406 L 168.96875 55.199219 L 169.257812 54.960938 L 169.546875 54.71875 L 169.839844 54.480469 L 170.128906 54.238281 L 170.417969 54 L 170.710938 53.761719 L 171 53.519531 L 171.289062 53.28125 L 171.582031 53.039062 L 171.871094 52.800781 L 172.160156 52.558594 L 172.453125 52.320312 L 172.742188 52.078125 L 173.03125 51.839844 L 173.324219 51.601562 L 173.613281 51.359375 L 173.902344 51.121094 L 174.195312 50.878906 L 174.484375 50.640625 L 174.773438 50.398438 L 175.066406 50.160156 L 175.355469 49.921875 L 175.644531 49.679688 L 175.933594 49.441406 L 176.226562 49.199219 L 176.515625 48.960938 L 176.804688 48.71875 L 177.097656 48.480469 L 177.386719 48.238281 L 177.675781 48 L 177.96875 47.761719 L 178.257812 47.519531 L 178.546875 47.28125 L 178.839844 47.039062 L 179.128906 46.800781 L 179.417969 46.558594 L 179.710938 46.320312 L 180 46.078125 L 180.289062 45.839844 L 180.582031 45.601562 L 180.871094 45.359375 L 181.160156 45.121094 L 181.453125 44.878906 L 181.742188 44.640625 L 182.03125 44.398438 L 182.324219 44.160156 L 182.613281 43.921875 L 182.902344 43.679688 L 183.195312 43.441406 L 183.484375 43.199219 L 183.773438 42.960938 L 184.066406 42.71875 L 184.355469 42.480469 L 184.644531 42.238281 L 184.933594 42 L 185.226562 41.761719 L 185.515625 41.519531 L 185.804688 41.28125 L 186.097656 41.039062 L 186.386719 40.800781 L 186.675781 40.558594 L 186.96875 40.320312 L 187.257812 40.078125 L 187.546875 39.839844 L 187.839844 39.601562 L 188.128906 39.359375 L 188.417969 39.121094 L 188.710938 38.878906 L 189 38.640625 L 189.289062 38.398438 L 189.582031 38.160156 L 189.871094 37.921875 L 190.160156 37.679688 L 190.453125 37.441406 L 190.742188 37.199219 L 191.03125 36.960938 L 191.324219 36.71875 L 191.613281 36.480469 L 191.902344 36.238281 L 192.195312 36 L 192.484375 35.761719 L 192.773438 35.519531 L 193.066406 35.28125 L 193.355469 35.039062 L 193.644531 34.800781 L 193.933594 34.558594 L 194.226562 34.320312 L 194.515625 34.078125 L 194.804688 33.839844 L 195.097656 33.601562 L 195.386719 33.359375 L 195.675781 33.121094 L 195.96875 32.878906 L 196.257812 32.640625 L 196.546875 32.398438 L 196.839844 32.160156 L 197.128906 31.921875 L 197.417969 31.679688 L 197.710938 31.441406 L 198 31.199219 L 198.289062 30.960938 L 198.582031 30.71875 L 198.871094 30.480469 L 199.160156 30.238281 L 199.453125 30 L 199.742188 29.761719 L 200.03125 29.519531 L 200.324219 29.28125 L 200.613281 29.039062 L 200.902344 28.800781 L 201.195312 28.558594 L 201.484375 28.320312 L 201.773438 28.078125 L 202.066406 27.839844 L 202.355469 27.601562 L 202.644531 27.359375 L 202.933594 27.121094 L 203.226562 26.878906 L 203.515625 26.640625 L 203.804688 26.398438 L 204.097656 26.160156 L 204.386719 25.921875 L 204.675781 25.679688 L 204.96875 25.441406 L 205.257812 25.199219 L 205.546875 24.960938 L 205.839844 24.71875 L 206.128906 24.480469 L 206.417969 24.238281 L 206.710938 24 L 207 23.761719 L 207.289062 23.519531 L 207.582031 23.28125 L 207.871094 23.039062 L 208.160156 22.800781 L 208.453125 22.558594 L 208.742188 22.320312 L 209.03125 22.078125 L 209.324219 21.839844 L 209.613281 21.601562 L 209.902344 21.359375 L 210.195312 21.121094 L 210.484375 20.878906 L 210.773438 20.640625 L 211.066406 20.398438 L 211.644531 19.921875 L 211.933594 19.679688 L 212.226562 19.441406 L 212.515625 19.199219 L 212.804688 18.960938 L 213.097656 18.71875 L 213.386719 18.480469 L 213.675781 18.238281 L 213.96875 18 L 214.257812 17.761719 L 214.546875 17.519531 L 214.839844 17.28125 L 215.128906 17.039062 L 215.417969 16.800781 L 215.710938 16.558594 L 216 16.320312 L 216.289062 16.078125 L 216.582031 15.839844 L 216.871094 15.601562 L 217.160156 15.359375 L 217.453125 15.121094 L 217.742188 14.878906 L 218.03125 14.640625 L 218.324219 14.398438 L 218.902344 13.921875 L 219.195312 13.679688 L 219.484375 13.441406 L 219.773438 13.199219 L 220.066406 12.960938 L 220.355469 12.71875 L 220.644531 12.480469 L 220.933594 12.238281 L 221.226562 12 L 221.515625 11.761719 L 221.804688 11.519531 L 222.097656 11.28125 L 222.386719 11.039062 L 222.675781 10.800781 L 222.96875 72 L 223.257812 71.761719 L 223.546875 71.519531 L 223.839844 71.28125 L 224.128906 71.039062 L 224.417969 70.800781 L 224.710938 70.558594 L 225 70.320312 L 225.289062 70.078125 L 225.582031 69.839844 L 225.871094 69.601562 L 226.160156 69.359375 L 226.453125 69.121094 L 226.742188 68.878906 L 227.03125 68.640625 L 227.324219 68.398438 L 227.902344 67.921875 L 228.195312 67.679688 L 228.484375 67.441406 L 228.773438 67.199219 L 229.066406 66.960938 L 229.355469 66.71875 L 229.644531 66.480469 L 229.933594 66.238281 L 230.226562 66 L 230.515625 65.761719 L 230.804688 65.519531 L 231.097656 65.28125 L 231.386719 65.039062 L 231.675781 64.800781 L 231.96875 64.558594 L 232.257812 64.320312 L 232.546875 64.078125 L 232.839844 63.839844 L 233.128906 63.601562 L 233.417969 63.359375 L 233.710938 63.121094 L 234 62.878906 L 234.289062 62.640625 L 234.582031 62.398438 L 235.160156 61.921875 L 235.453125 61.679688 L 235.742188 61.441406 L 236.03125 61.199219 L 236.324219 60.960938 L 236.613281 60.71875 L 236.902344 60.480469 L 237.195312 60.238281 L 237.773438 59.761719 L 238.066406 59.519531 L 238.355469 59.28125 L 238.644531 59.039062 L 238.933594 58.800781 L 239.226562 58.558594 L 239.515625 58.320312 L 239.804688 58.078125 L 240.097656 57.839844 L 240.386719 57.601562 L 240.675781 57.359375 L 240.96875 57.121094 L 241.257812 56.878906 L 241.546875 56.640625 L 241.839844 56.398438 L 242.417969 55.921875 L 242.710938 55.679688 L 243 55.441406 L 243.289062 55.199219 L 243.582031 54.960938 L 243.871094 54.71875 L 244.160156 54.480469 L 244.453125 54.238281 L 245.03125 53.761719 L 245.324219 53.519531 L 245.613281 53.28125 L 245.902344 53.039062 L 246.195312 52.800781 L 246.484375 52.558594 L 246.773438 52.320312 L 247.066406 52.078125 L 247.644531 51.601562 L 247.933594 51.359375 L 248.226562 51.121094 L 248.515625 50.878906 L 248.804688 50.640625 L 249.097656 50.398438 L 249.675781 49.921875 L 249.96875 49.679688 L 250.257812 49.441406 L 250.546875 49.199219 L 250.839844 48.960938 L 251.128906 48.71875 L 251.417969 48.480469 L 251.710938 48.238281 L 252.289062 47.761719 L 252.582031 47.519531 L 252.871094 47.28125 L 253.160156 47.039062 L 253.453125 46.800781 L 253.742188 46.558594 L 254.03125 46.320312 L 254.324219 46.078125 L 254.902344 45.601562 L 255.195312 45.359375 L 255.484375 45.121094 L 255.773438 44.878906 L 256.066406 44.640625 L 256.355469 44.398438 L 256.933594 43.921875 L 257.226562 43.679688 L 257.515625 43.441406 L 257.804688 43.199219 L 258.097656 42.960938 L 258.386719 42.71875 L 258.675781 42.480469 L 258.96875 42.238281 L 259.546875 41.761719 L 259.839844 41.519531 L 260.128906 41.28125 L 260.417969 41.039062 L 260.710938 40.800781 L 261 40.558594 L 261.289062 40.320312 L 261.582031 40.078125 L 262.160156 39.601562 L 262.453125 39.359375 L 262.742188 39.121094 L 263.03125 38.878906 L 263.324219 38.640625 L 263.613281 38.398438 L 263.902344 38.160156 L 264.195312 37.921875 L 264.484375 37.679688 L 264.773438 37.441406 L 265.066406 37.199219 L 265.355469 36.960938 L 265.644531 36.71875 L 265.933594 36.480469 L 266.226562 36.238281 L 266.804688 35.761719 L 267.097656 35.519531 L 267.386719 35.28125 L 267.675781 35.039062 L 267.96875 34.800781 L 268.257812 34.558594 L 268.546875 34.320312 L 268.839844 34.078125 L 269.417969 33.601562 L 269.710938 33.359375 L 270 33.121094 L 270.289062 32.878906 L 270.582031 32.640625 L 270.871094 32.398438 L 271.160156 32.160156 L 271.453125 31.921875 L 271.742188 31.679688 L 272.03125 31.441406 L 272.324219 31.199219 L 272.613281 30.960938 L 272.902344 30.71875 L 273.195312 30.480469 L 273.484375 30.238281 L 273.773438 30 L 274.066406 29.761719 L 274.355469 29.519531 L 274.644531 29.28125 L 274.933594 29.039062 L 275.226562 28.800781 L 275.515625 28.558594 L 275.804688 28.320312 L 276.097656 28.078125 L 276.675781 27.601562 L 276.96875 27.359375 L 277.257812 27.121094 L 277.546875 26.878906 L 277.839844 26.640625 L 278.128906 26.398438 L 278.417969 26.160156 L 278.710938 25.921875 L 279 25.679688 L 279.289062 25.441406 L 279.582031 25.199219 L 279.871094 24.960938 L 280.160156 24.71875 L 280.453125 24.480469 L 280.742188 24.238281 L 281.03125 24 L 281.324219 23.761719 L 281.613281 23.519531 L 281.902344 23.28125 L 282.195312 23.039062 L 282.484375 22.800781 L 282.773438 22.558594 L 283.066406 22.320312 L 283.355469 22.078125 L 283.933594 21.601562 L 284.226562 21.359375 L 284.515625 21.121094 L 284.804688 20.878906 L 285.097656 20.640625 L 285.386719 20.398438 L 285.675781 20.160156 L 285.96875 19.921875 L 286.257812 19.679688 L 286.546875 19.441406 L 286.839844 19.199219 L 287.128906 18.960938 L 287.417969 18.71875 L 287.710938 18.480469 L 288 18.238281 L 288.289062 18 L 288.582031 17.761719 L 288.871094 17.519531 L 289.160156 17.28125 L 289.453125 17.039062 L 289.742188 16.800781 L 290.03125 16.558594 L 290.324219 16.320312 L 290.613281 16.078125 L 290.902344 15.839844 L 291.195312 15.601562 L 291.484375 15.359375 L 291.773438 15.121094 L 292.066406 14.878906 L 292.355469 14.640625 L 292.644531 14.398438 L 292.933594 14.160156 L 293.226562 13.921875 L 293.515625 13.679688 L 293.804688 13.441406 L 294.097656 13.199219 L 294.386719 12.960938 L 294.675781 12.71875 L 294.96875 12.480469 L 295.257812 12.238281 L 295.546875 12 L 295.839844 11.761719 L 296.128906 11.519531 L 296.417969 11.28125 L 296.710938 11.039062 L 297 10.800781 "/>
</g>
</svg>
